<svg width="79" height="20" viewBox="0 0 79 20" fill="none" xmlns="http://www.w3.org/2000/svg">
<path d="M1.20494 17V3.13636H6.67458C7.72158 3.13636 8.61513 3.32365 9.35525 3.69822C10.0999 4.06828 10.6662 4.59403 11.0544 5.27548C11.447 5.95241 11.6433 6.74894 11.6433 7.66506C11.6433 8.58569 11.4447 9.37771 11.0476 10.0411C10.6505 10.7 10.0751 11.2054 9.3214 11.5574C8.57226 11.9094 7.66517 12.0854 6.60012 12.0854H2.9379V9.72971H6.12627C6.68587 9.72971 7.15069 9.65299 7.52075 9.49956C7.89081 9.34612 8.1661 9.11596 8.34661 8.80908C8.53164 8.5022 8.62416 8.12086 8.62416 7.66506C8.62416 7.20474 8.53164 6.81664 8.34661 6.50073C8.1661 6.18483 7.88855 5.94564 7.51398 5.78318C7.14393 5.6162 6.67684 5.53271 6.11273 5.53271H4.13608V17H1.20494ZM8.69185 10.691L12.1375 17H8.9017L5.53056 10.691H8.69185ZM16.5443 10.9888V17H13.6606V3.13636H16.4631V8.43677H16.5849C16.8196 7.82301 17.1987 7.34239 17.7222 6.99489C18.2457 6.64289 18.9023 6.46689 19.6921 6.46689C20.4141 6.46689 21.0437 6.62484 21.5807 6.94074C22.1222 7.25213 22.5419 7.70116 22.8398 8.28784C23.1422 8.87001 23.2911 9.56725 23.2866 10.3796V17H20.4028V10.894C20.4073 10.2532 20.2449 9.75453 19.9154 9.39802C19.5905 9.0415 19.1347 8.86324 18.548 8.86324C18.1554 8.86324 17.8079 8.94673 17.5055 9.1137C17.2077 9.28068 16.973 9.52438 16.8015 9.84479C16.6346 10.1607 16.5488 10.542 16.5443 10.9888ZM30.2539 17.2031C29.2024 17.2031 28.2931 16.9797 27.5259 16.5329C26.7632 16.0816 26.1743 15.4543 25.7591 14.651C25.3439 13.8432 25.1363 12.9068 25.1363 11.8418C25.1363 10.7677 25.3439 9.829 25.7591 9.0257C26.1743 8.21789 26.7632 7.5906 27.5259 7.14382C28.2931 6.69253 29.2024 6.46689 30.2539 6.46689C31.3054 6.46689 32.2125 6.69253 32.9752 7.14382C33.7424 7.5906 34.3336 8.21789 34.7488 9.0257C35.164 9.829 35.3716 10.7677 35.3716 11.8418C35.3716 12.9068 35.164 13.8432 34.7488 14.651C34.3336 15.4543 33.7424 16.0816 32.9752 16.5329C32.2125 16.9797 31.3054 17.2031 30.2539 17.2031ZM30.2675 14.9692C30.7458 14.9692 31.1452 14.8338 31.4656 14.563C31.7861 14.2877 32.0275 13.9132 32.19 13.4393C32.3569 12.9655 32.4404 12.4262 32.4404 11.8214C32.4404 11.2167 32.3569 10.6774 32.19 10.2036C32.0275 9.72971 31.7861 9.35514 31.4656 9.07986C31.1452 8.80457 30.7458 8.66693 30.2675 8.66693C29.7846 8.66693 29.3784 8.80457 29.049 9.07986C28.7241 9.35514 28.4781 9.72971 28.3111 10.2036C28.1487 10.6774 28.0674 11.2167 28.0674 11.8214C28.0674 12.4262 28.1487 12.9655 28.3111 13.4393C28.4781 13.9132 28.7241 14.2877 29.049 14.563C29.3784 14.8338 29.7846 14.9692 30.2675 14.9692ZM37.3008 17V3.13636H40.1846V8.34877H40.2726C40.3989 8.06897 40.5817 7.78465 40.8209 7.49583C41.0646 7.20249 41.3805 6.95879 41.7686 6.76474C42.1612 6.56617 42.6486 6.46689 43.2308 6.46689C43.989 6.46689 44.6885 6.66545 45.3293 7.06259C45.9701 7.45521 46.4823 8.04866 46.8659 8.84293C47.2495 9.63269 47.4413 10.6233 47.4413 11.8147C47.4413 12.9745 47.254 13.9538 46.8795 14.7526C46.5094 15.5468 46.004 16.1493 45.3631 16.56C44.7268 16.9662 44.0138 17.1692 43.224 17.1692C42.6644 17.1692 42.1883 17.0767 41.7957 16.8917C41.4076 16.7067 41.0894 16.4742 40.8412 16.1944C40.593 15.9101 40.4035 15.6236 40.2726 15.3347H40.144V17H37.3008ZM40.1237 11.8011C40.1237 12.4194 40.2094 12.9587 40.3809 13.419C40.5524 13.8793 40.8006 14.2381 41.1255 14.4953C41.4504 14.7481 41.8453 14.8744 42.3102 14.8744C42.7795 14.8744 43.1766 14.7458 43.5016 14.4886C43.8265 14.2268 44.0724 13.8658 44.2394 13.4055C44.4109 12.9406 44.4967 12.4059 44.4967 11.8011C44.4967 11.2009 44.4132 10.6729 44.2462 10.2171C44.0792 9.7613 43.8333 9.40478 43.5083 9.14755C43.1834 8.89031 42.784 8.7617 42.3102 8.7617C41.8408 8.7617 41.4437 8.8858 41.1187 9.13401C40.7983 9.38222 40.5524 9.73423 40.3809 10.19C40.2094 10.6458 40.1237 11.1829 40.1237 11.8011ZM54.0634 17.2031C53.0119 17.2031 52.1026 16.9797 51.3354 16.5329C50.5727 16.0816 49.9838 15.4543 49.5686 14.651C49.1534 13.8432 48.9458 12.9068 48.9458 11.8418C48.9458 10.7677 49.1534 9.829 49.5686 9.0257C49.9838 8.21789 50.5727 7.5906 51.3354 7.14382C52.1026 6.69253 53.0119 6.46689 54.0634 6.46689C55.1149 6.46689 56.022 6.69253 56.7847 7.14382C57.5519 7.5906 58.1431 8.21789 58.5583 9.0257C58.9735 9.829 59.1811 10.7677 59.1811 11.8418C59.1811 12.9068 58.9735 13.8432 58.5583 14.651C58.1431 15.4543 57.5519 16.0816 56.7847 16.5329C56.022 16.9797 55.1149 17.2031 54.0634 17.2031ZM54.077 14.9692C54.5553 14.9692 54.9547 14.8338 55.2752 14.563C55.5956 14.2877 55.837 13.9132 55.9995 13.4393C56.1665 12.9655 56.2499 12.4262 56.2499 11.8214C56.2499 11.2167 56.1665 10.6774 55.9995 10.2036C55.837 9.72971 55.5956 9.35514 55.2752 9.07986C54.9547 8.80457 54.5553 8.66693 54.077 8.66693C53.5941 8.66693 53.1879 8.80457 52.8585 9.07986C52.5336 9.35514 52.2876 9.72971 52.1206 10.2036C51.9582 10.6774 51.8769 11.2167 51.8769 11.8214C51.8769 12.4262 51.9582 12.9655 52.1206 13.4393C52.2876 13.9132 52.5336 14.2877 52.8585 14.563C53.1879 14.8338 53.5941 14.9692 54.077 14.9692ZM66.5867 6.60227V8.76847H60.3251V6.60227H66.5867ZM61.7467 4.11115H64.6304V13.8049C64.6304 14.0711 64.671 14.2787 64.7523 14.4276C64.8335 14.5721 64.9463 14.6736 65.0907 14.7323C65.2396 14.7909 65.4111 14.8203 65.6052 14.8203C65.7406 14.8203 65.876 14.809 66.0114 14.7864C66.1467 14.7593 66.2505 14.739 66.3227 14.7255L66.7763 16.8714C66.6319 16.9165 66.4288 16.9684 66.167 17.0271C65.9053 17.0903 65.5871 17.1286 65.2126 17.1422C64.5176 17.1692 63.9083 17.0767 63.3848 16.8646C62.8659 16.6525 62.462 16.3231 62.1731 15.8763C61.8843 15.4295 61.7421 14.8654 61.7467 14.1839V4.11115ZM76.9862 9.56725L74.3461 9.72971C74.301 9.50407 74.204 9.30099 74.055 9.12047C73.9061 8.93544 73.7098 8.78877 73.4661 8.68046C73.2269 8.56764 72.9404 8.51123 72.6064 8.51123C72.1596 8.51123 71.7828 8.606 71.4759 8.79554C71.169 8.98057 71.0156 9.22878 71.0156 9.54017C71.0156 9.78838 71.1149 9.99823 71.3134 10.1697C71.512 10.3412 71.8527 10.4789 72.3356 10.5827L74.2175 10.9617C75.2284 11.1693 75.982 11.5033 76.4785 11.9636C76.9749 12.4239 77.2231 13.0286 77.2231 13.7778C77.2231 14.4592 77.0223 15.0572 76.6206 15.5717C76.2235 16.0861 75.6774 16.4878 74.9824 16.7766C74.292 17.0609 73.4954 17.2031 72.5929 17.2031C71.2164 17.2031 70.1198 16.9165 69.303 16.3434C68.4906 15.7657 68.0145 14.9805 67.8746 13.9876L70.711 13.8387C70.7967 14.2584 71.0043 14.5788 71.3338 14.8C71.6632 15.0166 72.0852 15.1249 72.5996 15.1249C73.1051 15.1249 73.5112 15.0279 73.8181 14.8338C74.1295 14.6352 74.2875 14.3803 74.292 14.0689C74.2875 13.8071 74.1769 13.5928 73.9603 13.4258C73.7436 13.2543 73.4097 13.1234 72.9584 13.0332L71.1578 12.6744C70.1424 12.4713 69.3864 12.1193 68.89 11.6184C68.3981 11.1174 68.1522 10.4789 68.1522 9.70264C68.1522 9.03473 68.3327 8.45933 68.6937 7.97645C69.0593 7.49357 69.5715 7.12126 70.2304 6.85951C70.8937 6.59776 71.67 6.46689 72.559 6.46689C73.8723 6.46689 74.9057 6.74443 75.6594 7.29952C76.4175 7.8546 76.8598 8.61051 76.9862 9.56725Z" fill="black"/>
</svg>
